<?xml version="1.0" encoding="UTF-8" standalone="no"?>
<!-- Created with Inkscape (http://www.inkscape.org/) -->

<svg
   width="940.35309"
   height="343.14236"
   viewBox="0 0 248.80175 90.78975"
   version="1.1"
   id="svg1"
   xml:space="preserve"
   inkscape:version="1.4 (86a8ad7, 2024-10-11)"
   sodipodi:docname="key.svg"
   xmlns:inkscape="http://www.inkscape.org/namespaces/inkscape"
   xmlns:sodipodi="http://sodipodi.sourceforge.net/DTD/sodipodi-0.dtd"
   xmlns="http://www.w3.org/2000/svg"
   xmlns:svg="http://www.w3.org/2000/svg"><sodipodi:namedview
     id="namedview1"
     pagecolor="#d0eeff"
     bordercolor="#666666"
     borderopacity="1.0"
     inkscape:showpageshadow="2"
     inkscape:pageopacity="0.0"
     inkscape:pagecheckerboard="0"
     inkscape:deskcolor="#d1d1d1"
     inkscape:document-units="px"
     inkscape:zoom="0.5360689"
     inkscape:cx="577.35116"
     inkscape:cy="286.34379"
     inkscape:window-width="1920"
     inkscape:window-height="1111"
     inkscape:window-x="-9"
     inkscape:window-y="-9"
     inkscape:window-maximized="1"
     inkscape:current-layer="layer1"
     showguides="true"><sodipodi:guide
       position="148.20362,210.96643"
       orientation="1,0"
       id="guide7"
       inkscape:locked="false" /><sodipodi:guide
       position="207.63966,210.96643"
       orientation="1,0"
       id="guide8"
       inkscape:locked="false" /><sodipodi:guide
       position="137.40101,251.60506"
       orientation="0,-1"
       id="guide15"
       inkscape:locked="false" /></sodipodi:namedview><defs
     id="defs1"><marker
   style="overflow:visible"
   id="marker8"
   refX="0"
   refY="0"
   orient="auto-start-reverse"
   inkscape:stockid="Dart arrow"
   markerWidth="0.69999999"
   markerHeight="1"
   viewBox="0 0 1 1"
   inkscape:isstock="true"
   inkscape:collect="always"
   preserveAspectRatio="none"><path
     style="fill:context-stroke;fill-rule:evenodd;stroke:none"
     d="M 0,0 5,-5 -12.5,0 5,5 Z"
     transform="scale(-0.5)"
     id="path8" /></marker><marker
   style="overflow:visible"
   id="DartArrow"
   refX="0"
   refY="0"
   orient="auto-start-reverse"
   inkscape:stockid="Dart arrow"
   markerWidth="0.69999999"
   markerHeight="1"
   viewBox="0 0 1 1"
   inkscape:isstock="true"
   inkscape:collect="always"
   preserveAspectRatio="none"><path
     style="fill:context-stroke;fill-rule:evenodd;stroke:none"
     d="M 0,0 5,-5 -12.5,0 5,5 Z"
     transform="scale(-0.5)"
     id="path7" /></marker>
	

	

	

	

	

	
</defs><g
     inkscape:label="Layer 1"
     inkscape:groupmode="layer"
     id="layer1"
     transform="translate(3.5797381,-156.09568)"><g
       id="g14"
       transform="translate(-10.470035)"
       inkscape:export-filename="key.webp"
       inkscape:export-xdpi="400"
       inkscape:export-ydpi="400"><circle
         style="fill:#101010;fill-opacity:1;stroke:none;stroke-width:0.976944;stroke-opacity:1"
         id="path3-27-8-0"
         cx="-201.66512"
         cy="18.060863"
         r="11.170567"
         transform="rotate(-90)" /><polygon
         class="st0"
         points="227.334,122.495 227.334,499.258 284.675,499.258 284.675,122.495 471.462,309.291 512,268.753 256,12.742 0,268.753 40.55,309.291 "
         style="fill:#f7f7f7;fill-opacity:1"
         id="polygon1-14-4-6-0"
         transform="matrix(0,-0.02316791,0.02316791,0,12.129881,207.5961)" /><circle
         style="fill:#101010;fill-opacity:1;stroke:none;stroke-width:0.976944;stroke-opacity:1"
         id="path3-2-1"
         cx="201.31612"
         cy="-55.155758"
         r="11.170567"
         transform="rotate(90)" /><polygon
         class="st0"
         points="40.55,309.291 227.334,122.495 227.334,499.258 284.675,499.258 284.675,122.495 471.462,309.291 512,268.753 256,12.742 0,268.753 "
         style="fill:#f7f7f7;fill-opacity:1"
         id="polygon1-14-5-9"
         transform="matrix(0,0.02316791,-0.02316791,0,61.086739,195.38512)" /></g><g
       id="g15"
       transform="translate(-5.5337301)"><path
         style="fill:none;fill-opacity:1;stroke:#101010;stroke-width:1.5;stroke-linecap:butt;stroke-linejoin:miter;stroke-dasharray:none;stroke-opacity:1;marker-start:url(#DartArrow);marker-end:url(#marker8)"
         d="m 90.779073,201.49061 c 37.510727,0 37.510727,0 37.510727,0"
         id="path5" /><g
         id="g12"
         transform="translate(1.0310296)"><rect
           style="fill:#101010;fill-opacity:1;stroke:none;stroke-width:1.0449;stroke-opacity:1"
           id="rect6-5"
           width="59.436031"
           height="19.854441"
           x="78.785393"
           y="165.37369"
           ry="9.9272203" /><text
           xml:space="preserve"
           style="font-style:normal;font-variant:normal;font-weight:normal;font-stretch:normal;font-size:10.5833px;line-height:1.25;font-family:'Noto Sans JP';-inkscape-font-specification:'Noto Sans JP';fill:#f7f7f7;fill-opacity:1;stroke:none;stroke-width:0.264583;stroke-opacity:1"
           x="93.670906"
           y="179.07385"
           id="text8-5-4"><tspan
             sodipodi:role="line"
             id="tspan8-4-3"
             style="font-style:normal;font-variant:normal;font-weight:normal;font-stretch:normal;font-family:'Noto Sans JP';-inkscape-font-specification:'Noto Sans JP';fill:#f7f7f7;fill-opacity:1;stroke:none;stroke-width:0.264583;stroke-opacity:1"
             x="93.670906"
             y="179.07385">Space</tspan></text></g></g><g
       id="g7"><g
         id="g6"><circle
           style="fill:#101010;fill-opacity:1;stroke:none;stroke-width:0.976944;stroke-opacity:1"
           id="path3-27-8"
           cx="-185.98819"
           cy="180.13612"
           r="11.170567"
           transform="rotate(-90)" /><polygon
           class="st0"
           points="284.675,122.495 471.462,309.291 512,268.753 256,12.742 0,268.753 40.55,309.291 227.334,122.495 227.334,499.258 284.675,499.258 "
           style="fill:#f7f7f7;fill-opacity:1"
           id="polygon1-14-4-6"
           transform="matrix(0,-0.02316791,0.02316791,0,174.20515,191.91919)" /><circle
           style="fill:#101010;fill-opacity:1;stroke:none;stroke-width:0.976944;stroke-opacity:1"
           id="path3-2"
           cx="185.63919"
           cy="-217.23102"
           r="11.170567"
           transform="rotate(90)" /><polygon
           class="st0"
           points="284.675,499.258 284.675,122.495 471.462,309.291 512,268.753 256,12.742 0,268.753 40.55,309.291 227.334,122.495 227.334,499.258 "
           style="fill:#f7f7f7;fill-opacity:1"
           id="polygon1-14-5"
           transform="matrix(0,0.02316791,-0.02316791,0,223.16201,179.70821)" /><circle
           style="fill:#101010;fill-opacity:1;stroke:none;stroke-width:0.976944;stroke-opacity:1"
           id="path3-27-8-9"
           cx="198.50906"
           cy="167.26625"
           r="11.170567" /><polygon
           class="st0"
           points="227.334,122.495 227.334,499.258 284.675,499.258 284.675,122.495 471.462,309.291 512,268.753 256,12.742 0,268.753 40.55,309.291 "
           style="fill:#f7f7f7;fill-opacity:1"
           id="polygon1-14-4-6-5"
           transform="matrix(0.02316791,0,0,0.02316791,192.57808,161.33527)" /><circle
           style="fill:#101010;fill-opacity:1;stroke:none;stroke-width:0.976944;stroke-opacity:1"
           id="path3-2-2"
           cx="-198.85808"
           cy="-204.36115"
           r="11.170567"
           transform="scale(-1)" /><polygon
           class="st0"
           points="40.55,309.291 227.334,122.495 227.334,499.258 284.675,499.258 284.675,122.495 471.462,309.291 512,268.753 256,12.742 0,268.753 "
           style="fill:#f7f7f7;fill-opacity:1"
           id="polygon1-14-5-0"
           transform="matrix(-0.02316791,0,0,-0.02316791,204.78907,210.29213)" /></g><rect
         style="fill:#101010;fill-opacity:1;stroke:none;stroke-width:1.04489;stroke-opacity:1"
         id="rect6"
         width="59.435711"
         height="19.854334"
         x="152.14513"
         y="227.0311"
         ry="9.9271669" /><text
         xml:space="preserve"
         style="font-style:normal;font-variant:normal;font-weight:normal;font-stretch:normal;font-size:10.5833px;line-height:1.25;font-family:'Noto Sans JP';-inkscape-font-specification:'Noto Sans JP';fill:#f7f7f7;fill-opacity:1;stroke:none;stroke-width:0.264583;stroke-opacity:1"
         x="168.08896"
         y="240.73126"
         id="text8-5"><tspan
           sodipodi:role="line"
           id="tspan8-4"
           style="font-style:normal;font-variant:normal;font-weight:normal;font-stretch:normal;font-family:'Noto Sans JP';-inkscape-font-specification:'Noto Sans JP';fill:#f7f7f7;fill-opacity:1;stroke:none;stroke-width:0.264583;stroke-opacity:1"
           x="168.08896"
           y="240.73126">Enter</tspan></text><rect
         style="fill:#f7f7f7;fill-opacity:1;stroke:none;stroke-width:1.5"
         id="rect2"
         width="14.810181"
         height="14.930256"
         x="227.04762"
         y="229.49313"
         ry="7.4050903" /><g
         id="g2"
         transform="matrix(0.20763974,0,0,0.20763974,97.390249,259.50811)"><g
           id="g1">
	<path
   class="st0"
   d="m 698.8356,-156.41038 h -66.23937 c -5.06603,0 -9.88506,2.19612 -13.21012,6.02216 l -33.83404,38.91725 c -1.43222,1.64585 -1.43222,4.09421 0,5.7418 l 33.83404,38.919245 c 3.32506,3.824302 8.14409,6.018682 13.21012,6.018682 h 66.23937 c 7.2497,0 13.1272,-5.877501 13.1272,-13.127213 v -69.363224 c 0,-7.25145 -5.8775,-13.1287 -13.1272,-13.1287 z m -24.57521,68.401612 -12.86976,-12.866012 -12.866,12.862528 -7.72629,-7.722548 12.86627,-12.86975 -12.86428,-12.86427 7.7243,-7.72429 12.866,12.86627 12.86777,-12.86976 7.72428,7.72778 -12.86974,12.86776 12.87323,12.86626 z"
   style="fill:#000000;stroke-width:0.248994"
   id="path1" />
</g></g></g></g><style
     type="text/css"
     id="style1">
	.st0{fill:#4B4B4B;}
</style><style
     type="text/css"
     id="style1-8">
	.st0{fill:#4B4B4B;}
</style><style
     type="text/css"
     id="style1-1">
	.st0{fill:#4B4B4B;}
</style><style
     type="text/css"
     id="style1-2">
	.st0{fill:#4B4B4B;}
</style><style
     type="text/css"
     id="style1-4">
	.st0{fill:#4B4B4B;}
</style></svg>
